<?xml version="1.0" standalone="no"?>
<!DOCTYPE svg PUBLIC "-//W3C//DTD SVG 20010904//EN"
 "http://www.w3.org/TR/2001/REC-SVG-20010904/DTD/svg10.dtd">
<svg version="1.0" xmlns="http://www.w3.org/2000/svg"
 width="600.000000pt" height="600.000000pt" viewBox="0 0 600.000000 600.000000"
 preserveAspectRatio="xMidYMid meet">
<metadata>
Created by potrace 1.11, written by Peter Selinger 2001-2013
</metadata>
<g transform="translate(0.000000,600.000000) scale(0.100000,-0.100000)"
fill="#000000" stroke="none">
<path d="M1155 5291 c5 -9 -3 -12 -31 -10 -22 1 -48 0 -59 -4 -11 -3 -40 -9
-65 -13 -50 -7 -74 -11 -77 -14 -3 -3 -9 -4 -48 -14 -16 -4 -38 -12 -48 -17
-10 -5 -22 -7 -27 -4 -4 3 -10 2 -12 -3 -6 -15 -89 -52 -100 -46 -6 4 -8 2 -5
-4 4 -5 -14 -22 -40 -38 -27 -15 -53 -35 -60 -43 -7 -9 -13 -13 -13 -8 0 4
-35 -28 -77 -70 -71 -73 -183 -226 -183 -253 0 -6 -4 -9 -8 -6 -4 2 -9 -5 -9
-16 -1 -12 -7 -24 -13 -28 -7 -4 -11 -11 -11 -16 1 -15 -21 -78 -33 -93 -8
-11 -8 -13 0 -8 8 4 7 -6 -2 -32 -7 -21 -16 -61 -20 -87 -3 -27 -10 -54 -16
-61 -6 -7 -5 -14 2 -18 6 -3 8 -11 5 -16 -3 -5 -7 -36 -7 -69 -1 -35 -6 -60
-12 -60 -6 0 -5 -4 2 -9 17 -11 17 -21 0 -32 -7 -5 -8 -9 -2 -9 14 0 14 -30 0
-30 -8 0 -8 -3 -1 -8 14 -10 14 -384 0 -394 -7 -5 -6 -8 1 -8 14 0 14 -30 0
-30 -6 0 -5 -4 2 -9 17 -11 17 -21 0 -32 -7 -5 -8 -9 -3 -9 12 0 14 -198 2
-217 -4 -6 -4 -14 1 -17 10 -6 9 -86 0 -102 -4 -6 -4 -14 -1 -18 12 -12 12
-36 0 -36 -8 0 -8 -3 -2 -8 15 -11 17 -32 3 -32 -10 0 -10 -2 0 -9 17 -11 17
-21 0 -32 -7 -5 -8 -9 -3 -9 7 0 11 -40 10 -106 0 -97 2 -107 20 -114 11 -4
26 -3 33 2 6 6 12 6 12 1 0 -4 18 -7 40 -5 24 3 47 -1 57 -9 10 -8 14 -9 10
-2 -4 6 -3 14 3 18 5 3 10 3 10 -2 0 -4 110 -7 245 -5 188 2 245 0 245 -10 0
-6 7 -3 15 8 8 10 15 15 15 9 0 -6 35 -9 91 -7 73 3 89 1 83 -10 -5 -10 -4
-11 7 0 18 17 429 18 429 0 0 -6 7 -3 15 8 8 10 15 15 15 9 0 -6 35 -9 91 -7
73 3 89 1 83 -10 -5 -10 -4 -11 7 0 18 17 429 18 429 0 0 -6 7 -3 15 8 8 10
15 15 15 9 0 -6 35 -9 91 -7 73 3 89 1 83 -10 -6 -10 -5 -11 7 -1 9 7 56 13
115 15 78 2 102 0 112 -12 8 -8 11 -9 7 -2 -5 9 9 12 55 12 46 0 59 -3 54 -12
-4 -7 2 -4 14 6 12 11 22 15 22 10 0 -5 20 -8 45 -6 32 3 45 0 45 -9 0 -8 6
-5 15 7 8 10 14 15 15 9 0 -6 46 -9 125 -7 95 2 125 0 125 -9 0 -7 7 -4 15 7
8 10 15 15 15 9 0 -6 35 -9 91 -7 73 3 89 1 83 -10 -6 -10 -5 -11 7 -1 9 7 56
13 115 15 78 2 102 0 112 -12 8 -8 11 -9 7 -2 -5 9 9 12 55 12 46 0 59 -3 54
-12 -4 -7 2 -4 14 6 12 11 22 15 22 10 0 -5 20 -8 45 -6 32 3 45 0 45 -9 0 -8
6 -5 15 7 8 10 15 14 15 9 0 -6 20 -9 46 -6 37 2 45 0 39 -10 -5 -8 1 -5 13 5
12 11 22 15 22 10 0 -10 92 -10 109 0 6 4 11 4 11 -1 0 -4 39 -7 86 -5 66 2
84 -1 78 -10 -4 -7 2 -4 14 6 12 11 22 15 22 10 0 -10 92 -10 109 0 6 4 11 3
11 -1 0 -5 18 -7 40 -5 24 3 47 -1 56 -9 8 -7 14 -8 13 -3 -4 23 2 26 17 8 8
-10 13 -13 9 -6 -5 9 9 12 55 12 46 0 59 -3 54 -12 -4 -7 2 -4 14 6 12 11 22
15 22 10 0 -5 20 -8 45 -6 32 3 45 0 45 -9 0 -8 6 -5 15 7 8 10 14 15 15 9 0
-6 46 -9 125 -7 95 2 125 0 125 -9 0 -7 7 -4 15 7 8 10 15 15 15 9 0 -6 35 -9
91 -7 73 3 89 1 83 -10 -6 -10 -5 -11 7 -1 9 7 56 13 115 15 78 2 102 0 112
-12 8 -8 11 -9 7 -2 -5 9 9 12 55 12 46 0 59 -3 54 -12 -4 -7 2 -4 14 6 12 11
22 15 22 9 0 -6 12 -8 26 -5 16 3 30 -1 35 -9 6 -10 9 -10 9 -1 0 8 18 12 56
12 41 0 53 -3 48 -12 -4 -7 -4 -10 1 -6 10 9 11 1380 1 1396 -3 6 -2 13 4 17
6 4 7 12 3 18 -9 14 -12 29 -15 82 -2 22 -6 42 -10 45 -4 3 -9 24 -10 47 -2
23 -5 39 -7 37 -5 -5 -31 62 -34 86 -1 8 -6 18 -10 21 -4 3 -9 15 -10 27 0 12
-3 19 -5 17 -9 -8 -50 79 -45 95 4 11 3 12 -4 2 -7 -9 -18 1 -41 35 -17 27
-60 77 -96 113 -35 35 -62 69 -59 74 4 5 2 6 -4 3 -6 -4 -34 11 -63 33 -30 22
-57 40 -61 40 -4 0 -14 6 -21 13 -22 21 -149 73 -233 95 -71 18 -160 32 -235
35 -14 1 -28 6 -32 12 -5 7 -8 6 -8 -1 0 -13 -198 -13 -219 0 -9 6 -12 5 -8 0
3 -6 -40 -10 -109 -9 -70 0 -114 4 -114 10 0 7 -3 7 -8 0 -10 -14 -145 -14
-154 -1 -5 7 -8 7 -8 1 0 -14 -150 -14 -150 0 0 6 -3 7 -8 0 -10 -14 -145 -14
-154 -1 -5 7 -8 7 -8 1 0 -13 -619 -14 -639 -1 -9 6 -12 5 -8 0 3 -6 -148 -10
-389 -10 -262 1 -394 4 -394 11 0 7 -3 7 -8 0 -10 -14 -145 -14 -154 -1 -5 7
-8 7 -8 1 0 -14 -150 -14 -150 0 0 6 -3 7 -8 0 -10 -14 -145 -14 -154 -1 -5 7
-8 7 -8 1 0 -15 -662 -15 -672 -1 -5 8 -8 7 -8 0 0 -13 -78 -13 -99 0 -10 7
-12 5 -6 -3z m530 -511 c33 3 87 3 120 0 33 -3 87 -3 120 0 33 3 87 3 120 0
33 -3 87 -3 120 0 33 3 87 3 120 0 33 -3 88 -3 123 0 35 3 65 3 67 -1 5 -8 37
-5 53 5 6 4 12 3 12 -3 0 -5 8 -8 19 -6 20 4 102 7 139 6 16 -1 21 -5 16 -13
-6 -10 -5 -10 7 -1 8 6 37 12 64 13 84 3 97 1 89 -12 -6 -10 -5 -10 7 -1 8 6
37 12 64 13 84 3 97 1 89 -12 -6 -10 -5 -10 7 -1 8 6 37 12 64 13 84 3 97 1
89 -12 -6 -10 -5 -10 7 -1 8 6 37 12 64 13 84 3 97 1 89 -12 -6 -10 -5 -10 7
-1 8 6 37 12 64 13 84 3 97 1 89 -12 -6 -10 -5 -10 7 -1 8 6 37 12 64 13 84 3
97 1 89 -12 -6 -10 -4 -10 8 0 12 10 58 13 175 12 187 -1 158 -1 288 -1 58 0
112 0 120 0 8 0 62 0 120 0 58 0 113 0 123 0 14 0 66 0 304 -1 15 0 26 -3 24
-7 -2 -3 15 -6 37 -6 23 0 51 -5 62 -9 11 -5 22 -10 25 -11 45 -11 79 -29 74
-37 -5 -7 -2 -8 5 -3 8 4 31 -6 59 -26 69 -50 82 -62 75 -72 -3 -6 -1 -7 5 -4
5 4 24 -12 41 -35 17 -24 35 -49 42 -56 6 -7 8 -19 5 -27 -3 -8 0 -14 7 -12 7
1 11 -6 11 -15 -1 -10 2 -16 6 -13 9 6 31 -66 23 -78 -3 -6 -1 -7 4 -4 11 7
27 -49 17 -64 -3 -5 -1 -9 4 -9 5 0 9 -6 10 -12 0 -7 2 -39 5 -70 3 -42 2 -56
-7 -51 -6 4 -5 0 2 -9 9 -12 10 -18 2 -23 -8 -5 -8 -10 0 -20 8 -10 8 -15 0
-20 -8 -5 -8 -10 0 -20 8 -9 8 -15 0 -20 -6 -3 -7 -12 -3 -18 12 -19 10 -277
-2 -269 -5 3 -4 -1 3 -10 9 -11 10 -18 2 -23 -6 -3 -7 -12 -3 -18 12 -19 10
-227 -2 -229 -5 0 -643 -2 -1417 -3 -977 -1 -1408 2 -1408 10 0 7 -3 7 -8 0
-10 -15 -145 -15 -154 -1 -5 7 -8 7 -8 1 0 -15 -143 -15 -152 -1 -5 7 -8 7 -8
1 0 -15 -150 -15 -150 -1 0 7 -3 8 -8 1 -10 -15 -145 -15 -154 -1 -5 7 -8 7
-8 1 0 -15 -150 -15 -150 -1 0 7 -3 8 -8 1 -10 -15 -145 -15 -154 -1 -5 7 -8
7 -8 1 0 -15 -150 -15 -150 -1 0 7 -3 8 -8 1 -10 -15 -145 -15 -154 -1 -5 7
-8 7 -8 1 0 -15 -150 -15 -150 -1 0 7 -3 8 -8 1 -10 -15 -145 -15 -154 -1 -5
7 -8 7 -8 0 0 -11 -164 -14 -175 -2 -4 4 -16 1 -26 -5 -16 -10 -21 -9 -29 3
-7 11 -10 12 -10 2 0 -8 -5 -12 -12 -10 -15 5 -18 68 -4 68 8 0 8 3 1 8 -14 9
-14 45 0 54 7 5 6 8 -1 8 -13 0 -12 38 0 59 6 9 5 12 -1 8 -13 -8 -11 156 2
165 6 5 6 8 -1 8 -13 0 -12 38 0 59 6 9 5 12 -1 8 -12 -8 -12 97 0 109 3 4 3
12 0 18 -4 6 -9 19 -10 30 -3 16 -1 17 14 5 16 -12 16 -12 0 8 -13 14 -15 23
-7 28 6 4 7 12 3 18 -5 7 -8 28 -7 47 1 19 2 54 3 78 0 24 5 41 10 38 5 -4 7
3 4 14 -3 11 2 37 10 57 8 21 16 43 18 48 2 6 7 9 11 8 4 -2 5 3 2 10 -10 27
98 183 119 170 5 -3 7 -1 3 5 -7 11 47 60 92 83 15 8 30 18 33 22 3 4 16 9 27
10 12 1 22 4 22 7 0 4 15 11 34 17 25 8 38 7 46 -1 9 -8 11 -8 8 3 -2 7 3 16
11 19 10 3 11 0 5 -9 -7 -12 -5 -12 9 -1 9 8 21 11 27 7 5 -3 10 -2 10 2 0 5
77 10 172 11 94 1 173 3 174 5 1 1 31 0 66 -3 35 -3 90 -3 123 0z"/>
<path d="M2615 4761 c-3 -5 -2 -12 3 -15 5 -3 9 1 9 9 0 17 -3 19 -12 6z"/>
<path d="M2935 4761 c-3 -5 -2 -12 3 -15 5 -3 9 1 9 9 0 17 -3 19 -12 6z"/>
<path d="M3255 4761 c-3 -5 -2 -12 3 -15 5 -3 9 1 9 9 0 17 -3 19 -12 6z"/>
<path d="M3575 4761 c-3 -5 -2 -12 3 -15 5 -3 9 1 9 9 0 17 -3 19 -12 6z"/>
<path d="M4890 4745 c0 -7 30 -13 34 -7 3 4 -4 9 -15 9 -10 1 -19 0 -19 -2z"/>
<path d="M895 4660 c-3 -5 -1 -10 4 -10 6 0 11 5 11 10 0 6 -2 10 -4 10 -3 0
-8 -4 -11 -10z"/>
<path d="M5110 4646 c0 -2 7 -7 16 -10 8 -3 12 -2 9 4 -6 10 -25 14 -25 6z"/>
<path d="M5210 4539 c0 -5 5 -7 10 -4 6 3 10 8 10 11 0 2 -4 4 -10 4 -5 0 -10
-5 -10 -11z"/>
<path d="M5250 4439 c0 -5 5 -7 10 -4 6 3 10 8 10 11 0 2 -4 4 -10 4 -5 0 -10
-5 -10 -11z"/>
<path d="M5315 4241 c-3 -5 -2 -12 3 -15 5 -3 9 1 9 9 0 17 -3 19 -12 6z"/>
<path d="M493 2935 c0 -8 4 -12 9 -9 5 3 6 10 3 15 -9 13 -12 11 -12 -6z"/>
<path d="M910 2946 c0 -2 7 -7 16 -10 8 -3 12 -2 9 4 -6 10 -25 14 -25 6z"/>
<path d="M985 2940 c-3 -6 1 -7 9 -4 18 7 21 14 7 14 -6 0 -13 -4 -16 -10z"/>
<path d="M1090 2946 c0 -2 7 -7 16 -10 8 -3 12 -2 9 4 -6 10 -25 14 -25 6z"/>
<path d="M1550 2946 c0 -2 7 -7 16 -10 8 -3 12 -2 9 4 -6 10 -25 14 -25 6z"/>
<path d="M1625 2940 c-3 -6 1 -7 9 -4 18 7 21 14 7 14 -6 0 -13 -4 -16 -10z"/>
<path d="M1730 2946 c0 -2 7 -7 16 -10 8 -3 12 -2 9 4 -6 10 -25 14 -25 6z"/>
<path d="M2190 2946 c0 -2 7 -7 16 -10 8 -3 12 -2 9 4 -6 10 -25 14 -25 6z"/>
<path d="M2265 2940 c-3 -6 1 -7 9 -4 18 7 21 14 7 14 -6 0 -13 -4 -16 -10z"/>
<path d="M2370 2946 c0 -2 7 -7 16 -10 8 -3 12 -2 9 4 -6 10 -25 14 -25 6z"/>
<path d="M2610 2946 c0 -2 7 -7 16 -10 8 -3 12 -2 9 4 -6 10 -25 14 -25 6z"/>
<path d="M2745 2940 c-3 -6 1 -7 9 -4 18 7 21 14 7 14 -6 0 -13 -4 -16 -10z"/>
<path d="M2850 2946 c0 -2 7 -7 16 -10 8 -3 12 -2 9 4 -6 10 -25 14 -25 6z"/>
<path d="M3150 2946 c0 -2 7 -7 16 -10 8 -3 12 -2 9 4 -6 10 -25 14 -25 6z"/>
<path d="M3225 2940 c-3 -6 1 -7 9 -4 18 7 21 14 7 14 -6 0 -13 -4 -16 -10z"/>
<path d="M3330 2946 c0 -2 7 -7 16 -10 8 -3 12 -2 9 4 -6 10 -25 14 -25 6z"/>
<path d="M3570 2946 c0 -2 7 -7 16 -10 8 -3 12 -2 9 4 -6 10 -25 14 -25 6z"/>
<path d="M3705 2940 c-3 -6 1 -7 9 -4 18 7 21 14 7 14 -6 0 -13 -4 -16 -10z"/>
<path d="M3810 2946 c0 -2 7 -7 16 -10 8 -3 12 -2 9 4 -6 10 -25 14 -25 6z"/>
<path d="M3945 2940 c-3 -6 1 -7 9 -4 18 7 21 14 7 14 -6 0 -13 -4 -16 -10z"/>
<path d="M4105 2940 c-3 -6 1 -7 9 -4 18 7 21 14 7 14 -6 0 -13 -4 -16 -10z"/>
<path d="M4265 2940 c-3 -6 1 -7 9 -4 18 7 21 14 7 14 -6 0 -13 -4 -16 -10z"/>
<path d="M4425 2940 c-3 -6 1 -7 9 -4 18 7 21 14 7 14 -6 0 -13 -4 -16 -10z"/>
<path d="M4530 2946 c0 -2 7 -7 16 -10 8 -3 12 -2 9 4 -6 10 -25 14 -25 6z"/>
<path d="M4665 2940 c-3 -6 1 -7 9 -4 18 7 21 14 7 14 -6 0 -13 -4 -16 -10z"/>
<path d="M4770 2946 c0 -2 7 -7 16 -10 8 -3 12 -2 9 4 -6 10 -25 14 -25 6z"/>
<path d="M5070 2946 c0 -2 7 -7 16 -10 8 -3 12 -2 9 4 -6 10 -25 14 -25 6z"/>
<path d="M5145 2940 c-3 -6 1 -7 9 -4 18 7 21 14 7 14 -6 0 -13 -4 -16 -10z"/>
<path d="M5250 2946 c0 -2 7 -7 16 -10 8 -3 12 -2 9 4 -6 10 -25 14 -25 6z"/>
<path d="M5490 2946 c0 -2 7 -7 16 -10 8 -3 12 -2 9 4 -6 10 -25 14 -25 6z"/>
<path d="M5625 2940 c-3 -6 1 -7 9 -4 18 7 21 14 7 14 -6 0 -13 -4 -16 -10z"/>
<path d="M5731 2947 c2 -1 13 -9 24 -17 19 -14 19 -14 6 3 -7 9 -18 17 -24 17
-6 0 -8 -1 -6 -3z"/>
<path d="M199 2790 c-1 -8 -2 -26 -3 -40 0 -14 -5 -28 -11 -32 -7 -5 -6 -8 0
-8 12 0 14 -198 2 -217 -4 -6 -4 -14 1 -17 10 -6 9 -92 0 -102 -4 -4 -4 -12
-1 -18 12 -19 12 -36 0 -36 -8 0 -7 -3 1 -9 8 -4 14 -12 14 -16 0 -4 -6 -12
-14 -16 -7 -5 -8 -9 -2 -9 6 0 11 -7 11 -15 0 -8 -5 -15 -11 -15 -8 0 -8 -3
-1 -8 14 -10 14 -384 0 -394 -7 -5 -6 -8 1 -8 14 0 14 -30 0 -30 -6 0 -5 -4 2
-9 8 -4 14 -12 14 -16 0 -4 -6 -12 -14 -16 -7 -5 -8 -9 -3 -9 12 0 14 -198 2
-217 -4 -6 -4 -14 1 -17 5 -3 8 -33 7 -66 0 -34 3 -64 7 -66 5 -3 6 -9 3 -14
-3 -5 4 -32 14 -61 11 -29 17 -57 14 -62 -3 -6 -1 -7 5 -3 7 4 12 2 12 -4 0
-6 7 -18 15 -27 8 -8 12 -20 8 -26 -3 -7 -3 -9 2 -5 8 7 72 -51 68 -62 -1 -3
8 -7 19 -7 12 -1 25 -8 29 -15 5 -7 9 -9 9 -4 0 5 9 1 20 -9 20 -18 76 -28
175 -29 40 -1 64 -6 73 -16 8 -8 11 -9 7 -3 -5 10 9 13 55 13 46 0 59 -3 54
-12 -4 -7 2 -4 14 6 12 11 22 15 22 10 0 -5 20 -8 45 -6 32 3 45 0 45 -9 0 -8
6 -5 15 7 8 10 14 15 15 9 0 -6 46 -9 125 -7 95 2 125 0 125 -9 0 -7 7 -4 15
7 8 10 15 15 15 9 0 -6 35 -9 91 -7 73 3 89 1 83 -10 -6 -10 -5 -11 7 -1 9 7
56 13 115 15 78 2 102 0 112 -12 8 -8 11 -9 7 -2 -5 9 9 12 55 12 46 0 59 -3
54 -12 -4 -7 2 -4 14 6 12 11 22 15 22 10 0 -5 20 -8 45 -6 32 3 45 0 45 -9 0
-8 6 -5 15 7 8 10 14 15 15 9 0 -6 46 -9 125 -7 95 2 125 0 125 -9 0 -7 7 -4
15 7 8 10 15 15 15 9 0 -6 35 -9 91 -7 73 3 89 1 83 -10 -6 -10 -5 -11 7 -1
21 17 217 22 224 5 2 -6 10 -12 17 -12 9 0 9 3 -2 11 -12 8 -10 9 10 7 14 -2
24 -9 22 -16 -1 -6 1 -11 5 -10 14 4 53 -26 53 -40 0 -7 4 -11 8 -8 5 3 18 -5
30 -17 11 -12 42 -40 68 -62 26 -22 62 -53 80 -70 19 -16 40 -36 49 -43 8 -7
12 -18 9 -24 -4 -6 -3 -8 3 -5 13 8 55 -27 45 -38 -10 -12 20 6 40 23 15 12
20 13 35 1 15 -11 16 -11 6 1 -15 17 -17 30 -3 30 5 0 21 11 35 26 14 14 29
23 34 19 5 -3 13 0 17 6 4 8 3 9 -4 5 -26 -16 -10 11 20 34 18 14 39 33 47 42
20 23 38 23 20 1 -13 -16 -12 -17 3 -5 9 8 14 20 11 28 -3 8 -1 14 3 14 5 0
31 20 57 45 49 46 64 55 51 33 -4 -8 -3 -10 2 -5 5 5 9 14 9 20 0 8 30 14 85
17 68 4 88 2 98 -10 8 -8 11 -9 7 -2 -5 9 9 12 55 12 46 0 59 -3 54 -13 -4 -6
2 -3 14 7 12 11 22 15 22 10 0 -5 20 -8 45 -6 32 3 45 0 45 -9 0 -8 6 -5 15 7
8 10 14 15 15 9 0 -6 46 -9 125 -7 95 2 125 0 125 -9 0 -7 7 -4 15 7 8 10 15
15 15 9 0 -6 35 -9 91 -7 73 3 89 1 83 -10 -6 -10 -5 -11 7 -1 9 7 56 13 115
15 78 2 102 0 112 -12 8 -8 11 -9 7 -2 -5 9 9 12 55 12 46 0 59 -3 54 -12 -4
-7 2 -4 14 6 12 11 22 15 22 10 0 -5 20 -8 45 -6 32 3 45 0 45 -9 0 -8 6 -5
15 7 8 10 14 15 15 9 0 -6 46 -9 125 -7 95 2 125 0 125 -9 0 -7 7 -4 15 7 8
10 15 15 15 9 0 -6 35 -9 91 -7 73 3 89 1 83 -10 -6 -11 -5 -11 8 0 12 10 44
12 112 10 53 -2 96 -1 96 2 0 5 33 10 92 13 14 1 24 5 22 9 -2 3 17 17 43 30
27 13 52 29 56 36 5 7 13 9 19 6 6 -4 8 -3 5 3 -7 10 33 49 46 45 5 -1 6 2 2
8 -3 6 2 21 12 34 11 13 25 43 32 67 7 24 16 51 19 59 8 18 8 1391 0 1411 -5
12 -40 14 -184 13 -115 0 -184 3 -193 10 -11 8 -13 8 -7 -1 5 -10 -3 -13 -28
-13 -29 0 -34 -3 -29 -17 5 -12 3 -14 -7 -8 -10 6 -11 4 -4 -6 13 -21 12 -279
-1 -271 -5 3 -4 -1 3 -10 9 -11 10 -18 2 -23 -6 -3 -7 -12 -3 -18 12 -19 10
-277 -2 -269 -5 3 -4 -1 3 -10 9 -11 10 -18 2 -23 -6 -3 -7 -12 -3 -18 12 -19
10 -277 -2 -269 -5 3 -4 -1 3 -10 9 -11 10 -18 2 -23 -6 -3 -7 -12 -3 -18 12
-19 10 -227 -2 -229 -5 0 -211 -2 -457 -3 -307 -1 -448 2 -448 10 0 7 -3 7 -8
0 -10 -15 -145 -15 -154 -1 -5 7 -8 7 -8 1 0 -15 -150 -15 -150 -1 0 7 -3 8
-8 1 -10 -15 -145 -15 -154 -1 -5 7 -8 7 -8 0 0 -12 -518 -14 -537 -1 -9 6
-11 3 -7 -7 4 -11 0 -16 -11 -16 -9 0 -13 -4 -10 -10 3 -5 0 -10 -8 -10 -8 0
-18 -7 -21 -16 -3 -9 -11 -12 -18 -8 -7 4 -10 4 -6 -1 9 -9 -71 -81 -84 -77
-5 1 -7 -2 -3 -7 6 -10 -34 -37 -48 -33 -5 1 -6 -1 -3 -6 6 -10 -157 -162
-174 -162 -6 0 -13 -7 -17 -16 -5 -14 -8 -15 -17 -3 -6 8 -23 23 -37 34 -28
22 -161 140 -220 196 -21 20 -36 39 -34 43 3 3 2 4 -1 1 -13 -9 -46 17 -40 31
3 9 1 12 -5 9 -5 -4 -22 5 -36 19 -25 25 -39 30 -75 27 -10 -1 -18 4 -18 11 0
8 -3 9 -8 3 -10 -15 -145 -15 -154 -1 -5 7 -8 7 -8 1 0 -15 -150 -15 -150 -1
0 7 -3 8 -8 1 -10 -15 -145 -15 -154 -1 -5 7 -8 7 -8 1 0 -8 -214 -11 -679
-11 -476 0 -678 3 -673 10 3 6 -2 5 -11 -3 -20 -16 -19 -22 -21 106 -1 56 3
93 9 93 6 0 6 3 0 8 -13 9 -13 42 -1 61 6 9 5 12 -1 8 -13 -8 -11 156 2 165 6
5 6 8 -1 8 -12 0 -13 38 -1 56 3 6 3 14 0 18 -13 12 -12 86 1 79 6 -4 5 0 -2
9 -9 11 -10 18 -2 23 6 3 7 11 3 18 -12 20 -11 117 1 110 6 -4 5 0 -2 9 -9 11
-10 18 -2 23 6 3 7 11 3 18 -12 20 -11 117 1 110 6 -4 5 0 -2 9 -9 11 -10 18
-2 23 6 3 7 11 3 18 -12 20 -11 117 1 110 6 -4 5 0 -2 9 -9 11 -10 18 -2 23 6
3 7 12 3 18 -4 7 -8 28 -9 47 -1 19 -2 37 -3 40 0 3 -97 5 -214 4 -139 0 -215
3 -219 10 -5 7 -8 6 -9 -4z"/>
<path d="M496 1038 c3 -5 10 -6 15 -3 13 9 11 12 -6 12 -8 0 -12 -4 -9 -9z"/>
<path d="M690 1026 c0 -2 7 -7 16 -10 8 -3 12 -2 9 4 -6 10 -25 14 -25 6z"/>
<path d="M825 1020 c-3 -6 1 -7 9 -4 18 7 21 14 7 14 -6 0 -13 -4 -16 -10z"/>
<path d="M930 1026 c0 -2 7 -7 16 -10 8 -3 12 -2 9 4 -6 10 -25 14 -25 6z"/>
<path d="M1230 1026 c0 -2 7 -7 16 -10 8 -3 12 -2 9 4 -6 10 -25 14 -25 6z"/>
<path d="M1305 1020 c-3 -6 1 -7 9 -4 18 7 21 14 7 14 -6 0 -13 -4 -16 -10z"/>
<path d="M1410 1026 c0 -2 7 -7 16 -10 8 -3 12 -2 9 4 -6 10 -25 14 -25 6z"/>
<path d="M1650 1026 c0 -2 7 -7 16 -10 8 -3 12 -2 9 4 -6 10 -25 14 -25 6z"/>
<path d="M1785 1020 c-3 -6 1 -7 9 -4 18 7 21 14 7 14 -6 0 -13 -4 -16 -10z"/>
<path d="M1890 1026 c0 -2 7 -7 16 -10 8 -3 12 -2 9 4 -6 10 -25 14 -25 6z"/>
<path d="M2190 1026 c0 -2 7 -7 16 -10 8 -3 12 -2 9 4 -6 10 -25 14 -25 6z"/>
<path d="M2265 1020 c-3 -6 1 -7 9 -4 18 7 21 14 7 14 -6 0 -13 -4 -16 -10z"/>
<path d="M2370 1026 c0 -2 7 -7 16 -10 8 -3 12 -2 9 4 -6 10 -25 14 -25 6z"/>
<path d="M3570 1026 c0 -2 7 -7 16 -10 8 -3 12 -2 9 4 -6 10 -25 14 -25 6z"/>
<path d="M3705 1020 c-3 -6 1 -7 9 -4 18 7 21 14 7 14 -6 0 -13 -4 -16 -10z"/>
<path d="M3810 1026 c0 -2 7 -7 16 -10 8 -3 12 -2 9 4 -6 10 -25 14 -25 6z"/>
<path d="M4110 1026 c0 -2 7 -7 16 -10 8 -3 12 -2 9 4 -6 10 -25 14 -25 6z"/>
<path d="M4185 1020 c-3 -6 1 -7 9 -4 18 7 21 14 7 14 -6 0 -13 -4 -16 -10z"/>
<path d="M4290 1026 c0 -2 7 -7 16 -10 8 -3 12 -2 9 4 -6 10 -25 14 -25 6z"/>
<path d="M4530 1026 c0 -2 7 -7 16 -10 8 -3 12 -2 9 4 -6 10 -25 14 -25 6z"/>
<path d="M4665 1020 c-3 -6 1 -7 9 -4 18 7 21 14 7 14 -6 0 -13 -4 -16 -10z"/>
<path d="M4770 1026 c0 -2 7 -7 16 -10 8 -3 12 -2 9 4 -6 10 -25 14 -25 6z"/>
<path d="M5070 1026 c0 -2 7 -7 16 -10 8 -3 12 -2 9 4 -6 10 -25 14 -25 6z"/>
<path d="M5145 1020 c-3 -6 1 -7 9 -4 18 7 21 14 7 14 -6 0 -13 -4 -16 -10z"/>
<path d="M5250 1025 c0 -7 30 -13 34 -7 3 4 -4 9 -15 9 -10 1 -19 0 -19 -2z"/>
<path d="M5415 1021 c-3 -5 -2 -12 3 -15 5 -3 9 1 9 9 0 17 -3 19 -12 6z"/>
<path d="M3355 980 c3 -5 8 -10 11 -10 2 0 4 5 4 10 0 6 -5 10 -11 10 -5 0 -7
-4 -4 -10z"/>
</g>
</svg>
